<?xml version="1.0" encoding="UTF-8"?>
<!DOCTYPE svg PUBLIC "-//W3C//DTD SVG 1.1//EN" "http://www.w3.org/Graphics/SVG/1.1/DTD/svg11.dtd">
<svg xmlns="http://www.w3.org/2000/svg" version="1.1" width="413px" height="589px" style="shape-rendering:geometricPrecision; text-rendering:geometricPrecision; image-rendering:optimizeQuality; fill-rule:evenodd; clip-rule:evenodd" xmlns:xlink="http://www.w3.org/1999/xlink">
<g><path style="opacity:0.596" fill="#414141" d="M 206.5,7.5 C 205.833,6.5 205.167,5.5 204.5,4.5C 204.238,3.02218 204.571,1.68884 205.5,0.5C 206.474,2.74269 206.808,5.07603 206.5,7.5 Z"/></g>
<g><path style="opacity:1" fill="#f9f9f9" d="M 204.5,4.5 C 205.167,5.5 205.833,6.5 206.5,7.5C 207.728,46.4144 217.395,83.081 235.5,117.5C 231.866,119.073 228.366,121.073 225,123.5C 223.293,125.909 222.46,128.575 222.5,131.5C 222.842,132.338 223.508,132.672 224.5,132.5C 223.216,137.756 222.549,143.256 222.5,149C 222.833,154.167 223.167,159.333 223.5,164.5C 225.075,163.544 226.742,162.877 228.5,162.5C 229.167,162.5 229.5,162.833 229.5,163.5C 227.481,164.933 225.314,166.267 223,167.5C 222.5,179.495 222.333,191.495 222.5,203.5C 229.508,203.666 236.508,203.5 243.5,203C 244.056,202.617 244.389,202.117 244.5,201.5C 244.833,201.5 245.167,201.5 245.5,201.5C 254.44,203.472 263.773,204.139 273.5,203.5C 273.12,201.302 273.787,199.635 275.5,198.5C 275.5,198.833 275.5,199.167 275.5,199.5C 275.67,200.822 275.337,201.989 274.5,203C 278.5,203.667 282.5,203.667 286.5,203C 288.286,202.215 289.786,201.049 291,199.5C 291.738,196.53 292.904,193.864 294.5,191.5C 330.298,209.765 368.298,219.431 408.5,220.5C 406.833,221.167 405.167,221.833 403.5,222.5C 364.781,223.971 328.281,233.637 294,251.5C 293.31,245.385 290.143,241.218 284.5,239C 276.833,238.333 269.167,238.333 261.5,239C 260.934,239.995 260.267,240.828 259.5,241.5C 258.596,240.791 258.263,239.791 258.5,238.5C 248.75,238.194 239.084,238.527 229.5,239.5C 229.5,238.833 229.167,238.5 228.5,238.5C 226.5,238.5 224.5,238.5 222.5,238.5C 222.5,242.833 222.5,247.167 222.5,251.5C 222.5,252.167 222.833,252.5 223.5,252.5C 213.514,275.858 201.847,298.192 188.5,319.5C 188.831,292.328 188.498,265.328 187.5,238.5C 166.454,238.189 145.454,238.523 124.5,239.5C 123.833,239.5 123.167,239.5 122.5,239.5C 135.262,225.736 149.262,213.403 164.5,202.5C 172.097,204.467 180.097,205.134 188.5,204.5C 188.5,199.167 188.5,193.833 188.5,188.5C 188.158,187.662 187.492,187.328 186.5,187.5C 187.642,176.91 187.808,166.243 187,155.5C 186.329,156.252 185.496,156.586 184.5,156.5C 184.5,156.167 184.5,155.833 184.5,155.5C 184.811,154.522 185.478,153.855 186.5,153.5C 187.665,144.184 187.832,134.851 187,125.5C 186.535,124.069 185.701,122.903 184.5,122C 181.519,120.513 178.519,119.179 175.5,118C 194.008,82.4687 203.675,44.6353 204.5,4.5 Z M 228.5,238.5 C 227.257,243.25 225.257,247.584 222.5,251.5C 222.5,247.167 222.5,242.833 222.5,238.5C 224.5,238.5 226.5,238.5 228.5,238.5 Z"/></g>
<g><path style="opacity:1" fill="#57312c" d="M 290.5,107.5 C 291.552,107.351 292.552,107.517 293.5,108C 269.823,114.495 246.823,122.661 224.5,132.5C 223.508,132.672 222.842,132.338 222.5,131.5C 233.928,126.188 245.595,121.354 257.5,117C 268.26,112.912 279.26,109.745 290.5,107.5 Z"/></g>
<g><path style="opacity:1" fill="#a9443b" d="M 290.5,107.5 C 291.568,106.566 292.901,106.232 294.5,106.5C 295.209,107.404 296.209,107.737 297.5,107.5C 293.846,134.289 287.346,160.289 278,185.5C 277.321,189.878 276.488,194.211 275.5,198.5C 273.787,199.635 273.12,201.302 273.5,203.5C 263.773,204.139 254.44,203.472 245.5,201.5C 250.092,190.227 254.592,178.894 259,167.5C 261.462,160.984 263.295,154.317 264.5,147.5C 251.694,151.009 239.694,156.009 228.5,162.5C 226.742,162.877 225.075,163.544 223.5,164.5C 223.167,159.333 222.833,154.167 222.5,149C 222.549,143.256 223.216,137.756 224.5,132.5C 246.823,122.661 269.823,114.495 293.5,108C 292.552,107.517 291.552,107.351 290.5,107.5 Z"/></g>
<g><path style="opacity:0.539" fill="#492d28" d="M 275.5,199.5 C 275.5,199.167 275.5,198.833 275.5,198.5C 276.488,194.211 277.321,189.878 278,185.5C 287.346,160.289 293.846,134.289 297.5,107.5C 296.209,107.737 295.209,107.404 294.5,106.5C 296.117,105.962 297.784,105.629 299.5,105.5C 294.611,137.724 286.611,169.058 275.5,199.5 Z"/></g>
<g><path style="opacity:0.996" fill="#4e2b26" d="M 245.5,201.5 C 245.167,201.5 244.833,201.5 244.5,201.5C 251.253,184.407 257.086,167.073 262,149.5C 251.102,154.033 240.269,158.699 229.5,163.5C 229.5,162.833 229.167,162.5 228.5,162.5C 239.694,156.009 251.694,151.009 264.5,147.5C 263.295,154.317 261.462,160.984 259,167.5C 254.592,178.894 250.092,190.227 245.5,201.5 Z"/></g>
<g><path style="opacity:1" fill="#a7443b" d="M 186.5,187.5 C 178.65,191.356 171.65,196.356 165.5,202.5C 165.167,202.5 164.833,202.5 164.5,202.5C 149.262,213.403 135.262,225.736 122.5,239.5C 107.828,254.512 94.3275,270.512 82,287.5C 81.5172,288.448 81.3505,289.448 81.5,290.5C 81.5,290.833 81.5,291.167 81.5,291.5C 80.448,291.351 79.448,291.517 78.5,292C 76.6173,294.666 74.6173,297.166 72.5,299.5C 71.6143,298.675 71.281,297.675 71.5,296.5C 78.9511,278.261 87.9511,260.928 98.5,244.5C 108.03,230.625 118.363,217.292 129.5,204.5C 146.675,186.979 165.008,170.979 184.5,156.5C 185.496,156.586 186.329,156.252 187,155.5C 187.808,166.243 187.642,176.91 186.5,187.5 Z"/></g>
<g><path style="opacity:1" fill="#53302c" d="M 186.5,187.5 C 187.492,187.328 188.158,187.662 188.5,188.5C 188.167,188.5 187.833,188.5 187.5,188.5C 180.357,192.908 173.357,197.575 166.5,202.5C 166.167,202.5 165.833,202.5 165.5,202.5C 171.65,196.356 178.65,191.356 186.5,187.5 Z"/></g>
<g><path style="opacity:0.998" fill="#f5f5f5" d="M 116.5,191.5 C 116.989,192.995 117.655,194.329 118.5,195.5C 120.043,198.792 122.377,201.459 125.5,203.5C 126.568,204.434 127.901,204.768 129.5,204.5C 118.363,217.292 108.03,230.625 98.5,244.5C 98.5,243.833 98.1667,243.5 97.5,243.5C 83.4369,236.088 68.4369,230.922 52.5,228C 36.9787,224.857 21.312,223.024 5.5,222.5C 4.83333,221.833 4.16667,221.167 3.5,220.5C 43.0242,219.201 80.6908,209.534 116.5,191.5 Z"/></g>
<g><path style="opacity:0.247" fill="#686867" d="M 116.5,191.5 C 118.176,192.183 118.843,193.517 118.5,195.5C 117.655,194.329 116.989,192.995 116.5,191.5 Z"/></g>
<g><path style="opacity:1" fill="#472624" d="M 184.5,155.5 C 184.5,155.833 184.5,156.167 184.5,156.5C 165.008,170.979 146.675,186.979 129.5,204.5C 127.901,204.768 126.568,204.434 125.5,203.5C 126.873,203.657 128.207,203.49 129.5,203C 146.23,185.088 164.564,169.255 184.5,155.5 Z"/></g>
<g><path style="opacity:0.173" fill="#828282" d="M 187.5,188.5 C 187.833,188.5 188.167,188.5 188.5,188.5C 188.5,193.833 188.5,199.167 188.5,204.5C 180.097,205.134 172.097,204.467 164.5,202.5C 164.833,202.5 165.167,202.5 165.5,202.5C 165.833,202.5 166.167,202.5 166.5,202.5C 173.313,203.491 180.313,203.825 187.5,203.5C 187.5,198.5 187.5,193.5 187.5,188.5 Z"/></g>
<g><path style="opacity:0.331" fill="#6e6e6e" d="M -0.5,220.5 C 0.833333,220.5 2.16667,220.5 3.5,220.5C 4.16667,221.167 4.83333,221.833 5.5,222.5C 3.5,222.5 1.5,222.5 -0.5,222.5C -0.5,221.833 -0.5,221.167 -0.5,220.5 Z"/></g>
<g><path style="opacity:0.347" fill="#696969" d="M 408.5,220.5 C 409.675,220.281 410.675,220.614 411.5,221.5C 408.914,222.48 406.247,222.813 403.5,222.5C 405.167,221.833 406.833,221.167 408.5,220.5 Z"/></g>
<g><path style="opacity:1" fill="#994944" d="M 259.5,241.5 C 259.672,242.492 259.338,243.158 258.5,243.5C 258.062,242.494 257.396,242.494 256.5,243.5C 256.5,242.5 256.5,241.5 256.5,240.5C 247.833,240.5 239.167,240.5 230.5,240.5C 230.715,242.179 230.048,243.179 228.5,243.5C 228.833,242.167 229.167,240.833 229.5,239.5C 239.084,238.527 248.75,238.194 258.5,238.5C 258.263,239.791 258.596,240.791 259.5,241.5 Z"/></g>
<g><path style="opacity:1" fill="#43221e" d="M 228.5,238.5 C 229.167,238.5 229.5,238.833 229.5,239.5C 229.167,240.833 228.833,242.167 228.5,243.5C 227.101,246.629 225.435,249.629 223.5,252.5C 222.833,252.5 222.5,252.167 222.5,251.5C 225.257,247.584 227.257,243.25 228.5,238.5 Z"/></g>
<g><path style="opacity:0.757" fill="#4f2e2a" d="M 258.5,243.5 C 248.569,268.031 236.569,291.365 222.5,313.5C 222.5,313.167 222.5,312.833 222.5,312.5C 231.236,295.798 240.07,279.132 249,262.5C 252.049,256.399 254.549,250.066 256.5,243.5C 257.396,242.494 258.062,242.494 258.5,243.5 Z"/></g>
<g><path style="opacity:0.588" fill="#604540" d="M 122.5,239.5 C 123.167,239.5 123.833,239.5 124.5,239.5C 109.069,255.596 94.7356,272.596 81.5,290.5C 81.3505,289.448 81.5172,288.448 82,287.5C 94.3275,270.512 107.828,254.512 122.5,239.5 Z"/></g>
<g><path style="opacity:1" fill="#4a2f2a" d="M 97.5,243.5 C 98.1667,243.5 98.5,243.833 98.5,244.5C 87.9511,260.928 78.9511,278.261 71.5,296.5C 70.7784,296.918 70.2784,297.584 70,298.5C 69.5357,297.906 69.369,297.239 69.5,296.5C 77.0538,277.718 86.3871,260.051 97.5,243.5 Z"/></g>
<g><path style="opacity:1" fill="#784541" d="M 81.5,291.5 C 77.9186,296.328 74.5852,301.328 71.5,306.5C 68.8711,307.129 67.2044,308.795 66.5,311.5C 66.1667,311.167 65.8333,310.833 65.5,310.5C 67.2919,307.366 68.6252,304.033 69.5,300.5C 69.3764,299.893 69.0431,299.56 68.5,299.5C 68.2627,298.209 68.596,297.209 69.5,296.5C 69.369,297.239 69.5357,297.906 70,298.5C 70.2784,297.584 70.7784,296.918 71.5,296.5C 71.281,297.675 71.6143,298.675 72.5,299.5C 74.6173,297.166 76.6173,294.666 78.5,292C 79.448,291.517 80.448,291.351 81.5,291.5 Z"/></g>
<g><path style="opacity:1" fill="#5a4846" d="M 68.5,299.5 C 69.0431,299.56 69.3764,299.893 69.5,300.5C 68.6252,304.033 67.2919,307.366 65.5,310.5C 65.8333,310.833 66.1667,311.167 66.5,311.5C 67.2044,308.795 68.8711,307.129 71.5,306.5C 68.3441,311.472 65.1774,316.472 62,321.5C 61.2825,322.451 60.4491,322.617 59.5,322C 61.8467,314.154 64.8467,306.654 68.5,299.5 Z"/></g>
<g><path style="opacity:0.999" fill="#fbfbfb" d="M 222.5,312.5 C 222.5,312.833 222.5,313.167 222.5,313.5C 222.333,363.168 222.5,412.834 223,462.5C 224.495,467.162 227.661,469.828 232.5,470.5C 233.167,471.167 233.833,471.833 234.5,472.5C 217.497,506.846 208.163,543.179 206.5,581.5C 205.833,583.167 205.167,584.833 204.5,586.5C 203.632,545.693 193.965,507.027 175.5,470.5C 180.984,470.677 184.984,468.344 187.5,463.5C 188.83,430.998 188.83,398.331 187.5,365.5C 186.893,365.624 186.56,365.957 186.5,366.5C 186.167,366.5 185.833,366.5 185.5,366.5C 198.589,349.067 210.922,331.067 222.5,312.5 Z"/></g>
<g><path style="opacity:1" fill="#5e4744" d="M 187.5,238.5 C 188.498,265.328 188.831,292.328 188.5,319.5C 184.982,326.185 181.148,332.852 177,339.5C 176.31,340.738 175.81,340.738 175.5,339.5C 179.322,333.194 183.155,326.861 187,320.5C 187.5,293.169 187.667,265.835 187.5,238.5 Z"/></g>
<g><path style="opacity:1" fill="#3c1a18" d="M 174.5,341.5 C 173.293,345.555 171.126,349.555 168,353.5C 167.601,353.272 167.435,352.938 167.5,352.5C 169.597,348.628 171.931,344.961 174.5,341.5 Z"/></g>
<g><path style="opacity:1" fill="#3d1d1a" d="M 166.5,354.5 C 166.938,354.435 167.272,354.601 167.5,355C 157.723,369.777 147.556,384.277 137,398.5C 136.601,398.272 136.435,397.938 136.5,397.5C 146.533,383.143 156.533,368.81 166.5,354.5 Z"/></g>
<g><path style="opacity:1" fill="#a7443a" d="M 256.5,243.5 C 254.549,250.066 252.049,256.399 249,262.5C 240.07,279.132 231.236,295.798 222.5,312.5C 210.922,331.067 198.589,349.067 185.5,366.5C 172.308,382.873 158.475,398.873 144,414.5C 143.517,415.448 143.351,416.448 143.5,417.5C 142.417,417.539 141.417,417.873 140.5,418.5C 137.599,422.429 133.932,425.096 129.5,426.5C 129.579,427.93 129.246,429.264 128.5,430.5C 111.064,447.109 92.8975,462.776 74,477.5C 74.7473,475.024 76.0806,472.691 78,470.5C 80.8785,468.411 83.5452,466.077 86,463.5C 92.6563,455.178 99.6563,447.178 107,439.5C 107.21,437.942 107.71,436.609 108.5,435.5C 115.425,426.732 122.592,418.065 130,409.5C 130.989,407.03 132.155,404.697 133.5,402.5C 134.11,400.566 135.11,398.899 136.5,397.5C 136.435,397.938 136.601,398.272 137,398.5C 147.556,384.277 157.723,369.777 167.5,355C 167.272,354.601 166.938,354.435 166.5,354.5C 166.328,353.508 166.662,352.842 167.5,352.5C 167.435,352.938 167.601,353.272 168,353.5C 171.126,349.555 173.293,345.555 174.5,341.5C 174.328,340.508 174.662,339.842 175.5,339.5C 175.81,340.738 176.31,340.738 177,339.5C 181.148,332.852 184.982,326.185 188.5,319.5C 201.847,298.192 213.514,275.858 223.5,252.5C 225.435,249.629 227.101,246.629 228.5,243.5C 230.048,243.179 230.715,242.179 230.5,240.5C 239.167,240.5 247.833,240.5 256.5,240.5C 256.5,241.5 256.5,242.5 256.5,243.5 Z"/></g>
<g><path style="opacity:0.682" fill="#553531" d="M 185.5,366.5 C 185.833,366.5 186.167,366.5 186.5,366.5C 173.334,384.507 159.001,401.507 143.5,417.5C 143.351,416.448 143.517,415.448 144,414.5C 158.475,398.873 172.308,382.873 185.5,366.5 Z"/></g>
<g><path style="opacity:1" fill="#45221f" d="M 133.5,402.5 C 132.155,404.697 130.989,407.03 130,409.5C 122.592,418.065 115.425,426.732 108.5,435.5C 108.5,434.833 108.5,434.167 108.5,433.5C 116.604,422.944 124.938,412.611 133.5,402.5 Z"/></g>
<g><path style="opacity:1" fill="#62413d" d="M 143.5,417.5 C 118.242,444.435 90.575,468.435 60.5,489.5C 60.1667,489.333 59.8333,489.167 59.5,489C 76.0705,470.603 92.4038,452.103 108.5,433.5C 108.5,434.167 108.5,434.833 108.5,435.5C 107.71,436.609 107.21,437.942 107,439.5C 99.6563,447.178 92.6563,455.178 86,463.5C 83.5452,466.077 80.8785,468.411 78,470.5C 76.0806,472.691 74.7473,475.024 74,477.5C 92.8975,462.776 111.064,447.109 128.5,430.5C 129.246,429.264 129.579,427.93 129.5,426.5C 133.932,425.096 137.599,422.429 140.5,418.5C 141.417,417.873 142.417,417.539 143.5,417.5 Z"/></g>
<g><path style="opacity:0.156" fill="#858686" d="M 186.5,366.5 C 186.56,365.957 186.893,365.624 187.5,365.5C 188.83,398.331 188.83,430.998 187.5,463.5C 187.832,430.996 187.498,398.662 186.5,366.5 Z"/></g>
<g><path style="opacity:0.616" fill="#121212" d="M 232.5,470.5 C 233.675,470.281 234.675,470.614 235.5,471.5C 235.376,472.107 235.043,472.44 234.5,472.5C 233.833,471.833 233.167,471.167 232.5,470.5 Z"/></g>
<g><path style="opacity:0.67" fill="#414141" d="M 206.5,581.5 C 206.5,583.833 206.5,586.167 206.5,588.5C 205.833,588.5 205.167,588.5 204.5,588.5C 204.5,587.833 204.5,587.167 204.5,586.5C 205.167,584.833 205.833,583.167 206.5,581.5 Z"/></g>
</svg>
